<svg width="589" height="200" viewBox="0 0 589 200" fill="none" xmlns="http://www.w3.org/2000/svg">
<path d="M25.1777 18.0218L26.3777 17.7218V4.92178L25.1777 4.62178V4.32178H30.4777C32.7444 4.32178 34.3777 4.66844 35.3777 5.36178C36.3777 6.04178 36.8777 6.99511 36.8777 8.22178C36.8777 9.04844 36.6577 9.72178 36.2177 10.2418C35.7777 10.7484 35.2111 11.1284 34.5177 11.3818C33.7844 11.6618 33.0044 11.8084 32.1777 11.8218V11.9218C32.6711 11.9484 33.1044 12.0218 33.4777 12.1418C34.4111 12.4351 35.0444 12.9618 35.3777 13.7218L37.1777 17.7218L38.1777 18.0218V18.3218H35.3777C34.2844 18.3218 33.4844 17.7551 32.9777 16.6218L30.9777 12.1218H29.6777V17.7218L31.0777 18.0218V18.3218H25.1777V18.0218ZM30.4777 11.6218C31.4111 11.6218 32.1444 11.3284 32.6777 10.7418C33.2111 10.1551 33.4777 9.31511 33.4777 8.22178C33.4777 7.12844 33.2111 6.28844 32.6777 5.70178C32.1444 5.11511 31.4111 4.82178 30.4777 4.82178H29.6777V11.6218H30.4777ZM45.3863 18.6218C44.0797 18.6218 42.933 18.3418 41.9463 17.7818C40.973 17.2084 40.2197 16.3751 39.6863 15.2818C39.153 14.1884 38.8863 12.8684 38.8863 11.3218C38.8863 9.77511 39.153 8.45511 39.6863 7.36178C40.2197 6.26844 40.973 5.44178 41.9463 4.88178C42.933 4.30844 44.0797 4.02178 45.3863 4.02178C46.693 4.02178 47.833 4.30844 48.8063 4.88178C49.793 5.44178 50.553 6.26844 51.0863 7.36178C51.6197 8.45511 51.8863 9.77511 51.8863 11.3218C51.8863 12.8684 51.6197 14.1884 51.0863 15.2818C50.553 16.3751 49.793 17.2084 48.8063 17.7818C47.833 18.3418 46.693 18.6218 45.3863 18.6218ZM45.3863 18.2218C45.9063 18.2218 46.3863 18.0018 46.8263 17.5618C47.2797 17.1218 47.653 16.3884 47.9463 15.3618C48.2397 14.3351 48.3863 12.9884 48.3863 11.3218C48.3863 9.65511 48.2397 8.30844 47.9463 7.28178C47.653 6.25511 47.2797 5.52178 46.8263 5.08178C46.3863 4.64178 45.9063 4.42178 45.3863 4.42178C44.8663 4.42178 44.3797 4.64178 43.9263 5.08178C43.4863 5.52178 43.1197 6.25511 42.8263 7.28178C42.533 8.30844 42.3863 9.65511 42.3863 11.3218C42.3863 12.9884 42.533 14.3351 42.8263 15.3618C43.1197 16.3884 43.4863 17.1218 43.9263 17.5618C44.3797 18.0018 44.8663 18.2218 45.3863 18.2218ZM58.691 18.6218C57.7443 18.6218 56.8577 18.4084 56.031 17.9818C55.6577 17.7951 55.3443 17.5751 55.091 17.3218C54.9043 17.6284 54.671 17.9018 54.391 18.1418C54.151 18.3151 54.0177 18.4084 53.991 18.4218H53.491V14.6218H54.291C54.491 15.2751 54.771 15.8618 55.131 16.3818C55.9443 17.5418 56.9977 18.1218 58.291 18.1218C59.051 18.1218 59.6577 17.8951 60.111 17.4418C60.5643 16.9884 60.791 16.3818 60.791 15.6218C60.791 15.1818 60.6577 14.7884 60.391 14.4418C60.1377 14.0951 59.8177 13.7884 59.431 13.5218C59.0443 13.2551 58.5043 12.9218 57.811 12.5218C56.931 12.0284 56.2177 11.5818 55.671 11.1818C55.1243 10.7818 54.6577 10.2818 54.271 9.68178C53.8843 9.06844 53.691 8.34844 53.691 7.52178C53.691 6.86844 53.871 6.28178 54.231 5.76178C54.6043 5.22844 55.1577 4.80844 55.891 4.50178C56.6243 4.18178 57.5243 4.02178 58.591 4.02178C59.3643 4.02178 60.1377 4.24178 60.911 4.68178C61.2043 4.84178 61.4977 5.05511 61.791 5.32178C62.0177 4.97511 62.251 4.70178 62.491 4.50178C62.731 4.32844 62.8643 4.23511 62.891 4.22178H63.391V8.02178H62.591C62.4177 7.38178 62.1577 6.80178 61.811 6.28178C61.491 5.77511 61.091 5.35511 60.611 5.02178C60.1443 4.68844 59.6043 4.52178 58.991 4.52178C58.471 4.52178 58.0243 4.72844 57.651 5.14178C57.2777 5.55511 57.091 6.08178 57.091 6.72178C57.091 7.21511 57.231 7.66178 57.511 8.06178C57.8043 8.44844 58.1577 8.78844 58.571 9.08178C58.9977 9.37511 59.571 9.72844 60.291 10.1418C61.131 10.6218 61.811 11.0484 62.331 11.4218C62.851 11.7951 63.291 12.2618 63.651 12.8218C64.011 13.3684 64.191 14.0018 64.191 14.7218C64.191 15.4418 63.9843 16.1018 63.571 16.7018C63.1577 17.2884 62.5377 17.7551 61.711 18.1018C60.8843 18.4484 59.8777 18.6218 58.691 18.6218ZM68.1855 18.0218L69.3855 17.7218V4.82178H67.0855C67.0855 5.63511 66.8655 6.41511 66.4255 7.16178C66.2389 7.46844 66.0255 7.72178 65.7855 7.92178H65.1855V4.32178H76.8855V7.92178H76.2855C76.0322 7.72178 75.8122 7.46844 75.6255 7.16178C75.1989 6.44178 74.9855 5.66178 74.9855 4.82178H72.6855V17.7218L73.8855 18.0218V18.3218H68.1855V18.0218ZM84.3902 18.6218C83.0836 18.6218 81.9369 18.3418 80.9502 17.7818C79.9769 17.2084 79.2236 16.3751 78.6902 15.2818C78.1569 14.1884 77.8902 12.8684 77.8902 11.3218C77.8902 9.77511 78.1569 8.45511 78.6902 7.36178C79.2236 6.26844 79.9769 5.44178 80.9502 4.88178C81.9369 4.30844 83.0836 4.02178 84.3902 4.02178C85.6969 4.02178 86.8369 4.30844 87.8102 4.88178C88.7969 5.44178 89.5569 6.26844 90.0902 7.36178C90.6236 8.45511 90.8902 9.77511 90.8902 11.3218C90.8902 12.8684 90.6236 14.1884 90.0902 15.2818C89.5569 16.3751 88.7969 17.2084 87.8102 17.7818C86.8369 18.3418 85.6969 18.6218 84.3902 18.6218ZM84.3902 18.2218C84.9102 18.2218 85.3902 18.0018 85.8302 17.5618C86.2836 17.1218 86.6569 16.3884 86.9502 15.3618C87.2436 14.3351 87.3902 12.9884 87.3902 11.3218C87.3902 9.65511 87.2436 8.30844 86.9502 7.28178C86.6569 6.25511 86.2836 5.52178 85.8302 5.08178C85.3902 4.64178 84.9102 4.42178 84.3902 4.42178C83.8702 4.42178 83.3836 4.64178 82.9302 5.08178C82.4902 5.52178 82.1236 6.25511 81.8302 7.28178C81.5369 8.30844 81.3902 9.65511 81.3902 11.3218C81.3902 12.9884 81.5369 14.3351 81.8302 15.3618C82.1236 16.3884 82.4902 17.1218 82.9302 17.5618C83.3836 18.0018 83.8702 18.2218 84.3902 18.2218ZM92.0043 4.92178L91.0043 4.62178V4.32178H93.4043C94.0976 4.32178 94.6643 4.48178 95.1043 4.80178C95.5443 5.10844 95.8776 5.51511 96.1043 6.02178L99.6443 14.0818L102.904 5.22178L101.404 4.62178V4.32178H105.104V4.62178L103.504 5.22178L98.6043 18.5218H98.0043L92.0043 4.92178ZM104.409 12.3218V11.4218H112.409V12.3218H104.409ZM120.504 18.6218C119.197 18.6218 118.05 18.3418 117.064 17.7818C116.09 17.2084 115.337 16.3751 114.804 15.2818C114.27 14.1884 114.004 12.8684 114.004 11.3218C114.004 9.77511 114.27 8.45511 114.804 7.36178C115.337 6.26844 116.09 5.44178 117.064 4.88178C118.05 4.30844 119.197 4.02178 120.504 4.02178C121.81 4.02178 122.95 4.30844 123.924 4.88178C124.91 5.44178 125.67 6.26844 126.204 7.36178C126.737 8.45511 127.004 9.77511 127.004 11.3218C127.004 12.8684 126.737 14.1884 126.204 15.2818C125.67 16.3751 124.91 17.2084 123.924 17.7818C122.95 18.3418 121.81 18.6218 120.504 18.6218ZM120.504 18.2218C121.024 18.2218 121.504 18.0018 121.944 17.5618C122.397 17.1218 122.77 16.3884 123.064 15.3618C123.357 14.3351 123.504 12.9884 123.504 11.3218C123.504 9.65511 123.357 8.30844 123.064 7.28178C122.77 6.25511 122.397 5.52178 121.944 5.08178C121.504 4.64178 121.024 4.42178 120.504 4.42178C119.984 4.42178 119.497 4.64178 119.044 5.08178C118.604 5.52178 118.237 6.25511 117.944 7.28178C117.65 8.30844 117.504 9.65511 117.504 11.3218C117.504 12.9884 117.65 14.3351 117.944 15.3618C118.237 16.3884 118.604 17.1218 119.044 17.5618C119.497 18.0018 119.984 18.2218 120.504 18.2218ZM130.708 7.72178V17.4218L132.308 18.0218V18.3218H128.508V18.0218L130.108 17.4218V5.02178L128.708 4.62178V4.32178H130.808C131.515 4.32178 132.068 4.44844 132.468 4.70178C132.868 4.95511 133.248 5.29511 133.608 5.72178L140.008 13.2218V5.22178L138.408 4.62178V4.32178H142.208V4.62178L140.608 5.22178V18.6218H140.008L130.708 7.72178ZM143.413 12.3218V11.4218H151.413V12.3218H143.413ZM153.107 18.0218L154.307 17.7218V4.92178L153.107 4.62178V4.32178H158.207C160.594 4.32178 162.421 4.93511 163.687 6.16178C164.967 7.38844 165.607 9.10844 165.607 11.3218C165.607 13.5351 164.967 15.2551 163.687 16.4818C162.421 17.7084 160.594 18.3218 158.207 18.3218H153.107V18.0218ZM158.207 17.8218C159.447 17.8218 160.407 17.3218 161.087 16.3218C161.767 15.3084 162.107 13.6418 162.107 11.3218C162.107 9.00178 161.767 7.34178 161.087 6.34178C160.407 5.32844 159.447 4.82178 158.207 4.82178H157.607V17.8218H158.207ZM173.804 18.6218C172.498 18.6218 171.351 18.3418 170.364 17.7818C169.391 17.2084 168.638 16.3751 168.104 15.2818C167.571 14.1884 167.304 12.8684 167.304 11.3218C167.304 9.77511 167.571 8.45511 168.104 7.36178C168.638 6.26844 169.391 5.44178 170.364 4.88178C171.351 4.30844 172.498 4.02178 173.804 4.02178C175.111 4.02178 176.251 4.30844 177.224 4.88178C178.211 5.44178 178.971 6.26844 179.504 7.36178C180.038 8.45511 180.304 9.77511 180.304 11.3218C180.304 12.8684 180.038 14.1884 179.504 15.2818C178.971 16.3751 178.211 17.2084 177.224 17.7818C176.251 18.3418 175.111 18.6218 173.804 18.6218ZM173.804 18.2218C174.324 18.2218 174.804 18.0018 175.244 17.5618C175.698 17.1218 176.071 16.3884 176.364 15.3618C176.658 14.3351 176.804 12.9884 176.804 11.3218C176.804 9.65511 176.658 8.30844 176.364 7.28178C176.071 6.25511 175.698 5.52178 175.244 5.08178C174.804 4.64178 174.324 4.42178 173.804 4.42178C173.284 4.42178 172.798 4.64178 172.344 5.08178C171.904 5.52178 171.538 6.25511 171.244 7.28178C170.951 8.30844 170.804 9.65511 170.804 11.3218C170.804 12.9884 170.951 14.3351 171.244 15.3618C171.538 16.3884 171.904 17.1218 172.344 17.5618C172.798 18.0018 173.284 18.2218 173.804 18.2218ZM184.009 7.72178V17.4218L185.609 18.0218V18.3218H181.809V18.0218L183.409 17.4218V5.02178L182.009 4.62178V4.32178H184.109C184.816 4.32178 185.369 4.44844 185.769 4.70178C186.169 4.95511 186.549 5.29511 186.909 5.72178L193.309 13.2218V5.22178L191.709 4.62178V4.32178H195.509V4.62178L193.909 5.22178V18.6218H193.309L184.009 7.72178ZM197.414 20.4218C197.694 20.3284 197.974 20.1751 198.254 19.9618C198.827 19.5351 199.18 18.9551 199.314 18.2218L199.054 18.3818C198.88 18.4751 198.667 18.5218 198.414 18.5218C198.014 18.5218 197.66 18.3751 197.354 18.0818C197.06 17.7751 196.914 17.4218 196.914 17.0218C196.914 16.6218 197.06 16.2751 197.354 15.9818C197.66 15.6751 198.014 15.5218 198.414 15.5218C198.88 15.5218 199.26 15.6884 199.554 16.0218C199.86 16.3418 200.014 16.7751 200.014 17.3218C200.014 18.5484 199.614 19.5084 198.814 20.2018C198.467 20.5218 198.067 20.7618 197.614 20.9218L197.414 20.4218ZM209.321 7.72178V17.4218L210.921 18.0218V18.3218H207.121V18.0218L208.721 17.4218V5.02178L207.321 4.62178V4.32178H209.421C210.128 4.32178 210.681 4.44844 211.081 4.70178C211.481 4.95511 211.861 5.29511 212.221 5.72178L218.621 13.2218V5.22178L217.021 4.62178V4.32178H220.821V4.62178L219.221 5.22178V18.6218H218.621L209.321 7.72178ZM220.321 18.0218L221.921 17.4218L227.421 4.12178H228.021L233.721 17.7218L234.721 18.0218V18.3218H232.321C231.627 18.3218 231.061 18.1684 230.621 17.8618C230.181 17.5418 229.854 17.1284 229.641 16.6218L228.621 14.2218H223.841L222.521 17.4218L224.021 18.0218V18.3218H220.321V18.0218ZM224.041 13.7218H228.421L226.221 8.46178L224.041 13.7218ZM237.114 7.72178V17.4218L238.714 18.0218V18.3218H234.914V18.0218L236.514 17.4218V5.02178L235.114 4.62178V4.32178H237.214C237.921 4.32178 238.474 4.44844 238.874 4.70178C239.274 4.95511 239.654 5.29511 240.014 5.72178L246.414 13.2218V5.22178L244.814 4.62178V4.32178H248.614V4.62178L247.014 5.22178V18.6218H246.414L237.114 7.72178ZM255.019 18.6218C254.072 18.6218 253.186 18.4084 252.359 17.9818C251.986 17.7951 251.672 17.5751 251.419 17.3218C251.232 17.6284 250.999 17.9018 250.719 18.1418C250.479 18.3151 250.346 18.4084 250.319 18.4218H249.819V14.6218H250.619C250.819 15.2751 251.099 15.8618 251.459 16.3818C252.272 17.5418 253.326 18.1218 254.619 18.1218C255.379 18.1218 255.986 17.8951 256.439 17.4418C256.892 16.9884 257.119 16.3818 257.119 15.6218C257.119 15.1818 256.986 14.7884 256.719 14.4418C256.466 14.0951 256.146 13.7884 255.759 13.5218C255.372 13.2551 254.832 12.9218 254.139 12.5218C253.259 12.0284 252.546 11.5818 251.999 11.1818C251.452 10.7818 250.986 10.2818 250.599 9.68178C250.212 9.06844 250.019 8.34844 250.019 7.52178C250.019 6.86844 250.199 6.28178 250.559 5.76178C250.932 5.22844 251.486 4.80844 252.219 4.50178C252.952 4.18178 253.852 4.02178 254.919 4.02178C255.692 4.02178 256.466 4.24178 257.239 4.68178C257.532 4.84178 257.826 5.05511 258.119 5.32178C258.346 4.97511 258.579 4.70178 258.819 4.50178C259.059 4.32844 259.192 4.23511 259.219 4.22178H259.719V8.02178H258.919C258.746 7.38178 258.486 6.80178 258.139 6.28178C257.819 5.77511 257.419 5.35511 256.939 5.02178C256.472 4.68844 255.932 4.52178 255.319 4.52178C254.799 4.52178 254.352 4.72844 253.979 5.14178C253.606 5.55511 253.419 6.08178 253.419 6.72178C253.419 7.21511 253.559 7.66178 253.839 8.06178C254.132 8.44844 254.486 8.78844 254.899 9.08178C255.326 9.37511 255.899 9.72844 256.619 10.1418C257.459 10.6218 258.139 11.0484 258.659 11.4218C259.179 11.7951 259.619 12.2618 259.979 12.8218C260.339 13.3684 260.519 14.0018 260.519 14.7218C260.519 15.4418 260.312 16.1018 259.899 16.7018C259.486 17.2884 258.866 17.7551 258.039 18.1018C257.212 18.4484 256.206 18.6218 255.019 18.6218ZM262.014 18.0218L263.214 17.7218V4.92178L262.014 4.62178V4.32178H272.714V7.92178H272.114C271.86 7.72178 271.64 7.46844 271.454 7.16178C271.027 6.44178 270.814 5.66178 270.814 4.82178H266.514V11.1218H268.814C268.907 10.6151 269.08 10.1418 269.334 9.70178C269.44 9.50178 269.567 9.30844 269.714 9.12178H270.314V13.6218H269.714C269.567 13.4351 269.44 13.2418 269.334 13.0418C269.08 12.6018 268.907 12.1284 268.814 11.6218H266.514V17.8218H271.214C271.214 16.9818 271.427 16.2018 271.854 15.4818C272.04 15.1751 272.26 14.9218 272.514 14.7218H273.114V18.3218H262.014V18.0218ZM276.704 7.72178V17.4218L278.304 18.0218V18.3218H274.504V18.0218L276.104 17.4218V5.02178L274.704 4.62178V4.32178H276.804C277.511 4.32178 278.064 4.44844 278.464 4.70178C278.864 4.95511 279.244 5.29511 279.604 5.72178L286.004 13.2218V5.22178L284.404 4.62178V4.32178H288.204V4.62178L286.604 5.22178V18.6218H286.004L276.704 7.72178ZM300.214 18.6218C299.268 18.6218 298.381 18.4084 297.554 17.9818C297.181 17.7951 296.868 17.5751 296.614 17.3218C296.428 17.6284 296.194 17.9018 295.914 18.1418C295.674 18.3151 295.541 18.4084 295.514 18.4218H295.014V14.6218H295.814C296.014 15.2751 296.294 15.8618 296.654 16.3818C297.468 17.5418 298.521 18.1218 299.814 18.1218C300.574 18.1218 301.181 17.8951 301.634 17.4418C302.088 16.9884 302.314 16.3818 302.314 15.6218C302.314 15.1818 302.181 14.7884 301.914 14.4418C301.661 14.0951 301.341 13.7884 300.954 13.5218C300.568 13.2551 300.028 12.9218 299.334 12.5218C298.454 12.0284 297.741 11.5818 297.194 11.1818C296.648 10.7818 296.181 10.2818 295.794 9.68178C295.408 9.06844 295.214 8.34844 295.214 7.52178C295.214 6.86844 295.394 6.28178 295.754 5.76178C296.128 5.22844 296.681 4.80844 297.414 4.50178C298.148 4.18178 299.048 4.02178 300.114 4.02178C300.888 4.02178 301.661 4.24178 302.434 4.68178C302.728 4.84178 303.021 5.05511 303.314 5.32178C303.541 4.97511 303.774 4.70178 304.014 4.50178C304.254 4.32844 304.388 4.23511 304.414 4.22178H304.914V8.02178H304.114C303.941 7.38178 303.681 6.80178 303.334 6.28178C303.014 5.77511 302.614 5.35511 302.134 5.02178C301.668 4.68844 301.128 4.52178 300.514 4.52178C299.994 4.52178 299.548 4.72844 299.174 5.14178C298.801 5.55511 298.614 6.08178 298.614 6.72178C298.614 7.21511 298.754 7.66178 299.034 8.06178C299.328 8.44844 299.681 8.78844 300.094 9.08178C300.521 9.37511 301.094 9.72844 301.814 10.1418C302.654 10.6218 303.334 11.0484 303.854 11.4218C304.374 11.7951 304.814 12.2618 305.174 12.8218C305.534 13.3684 305.714 14.0018 305.714 14.7218C305.714 15.4418 305.508 16.1018 305.094 16.7018C304.681 17.2884 304.061 17.7551 303.234 18.1018C302.408 18.4484 301.401 18.6218 300.214 18.6218ZM309.709 18.0218L310.909 17.7218V4.82178H308.609C308.609 5.63511 308.389 6.41511 307.949 7.16178C307.762 7.46844 307.549 7.72178 307.309 7.92178H306.709V4.32178H318.409V7.92178H317.809C317.556 7.72178 317.336 7.46844 317.149 7.16178C316.722 6.44178 316.509 5.66178 316.509 4.82178H314.209V17.7218L315.409 18.0218V18.3218H309.709V18.0218ZM319.703 18.5218C319.303 18.5218 318.949 18.3751 318.643 18.0818C318.349 17.7751 318.203 17.4218 318.203 17.0218C318.203 16.6218 318.349 16.2751 318.643 15.9818C318.949 15.6751 319.303 15.5218 319.703 15.5218C320.103 15.5218 320.449 15.6751 320.743 15.9818C321.049 16.2751 321.203 16.6218 321.203 17.0218C321.203 17.4218 321.049 17.7751 320.743 18.0818C320.449 18.3751 320.103 18.5218 319.703 18.5218ZM323.507 20.4218C323.787 20.3284 324.067 20.1751 324.347 19.9618C324.921 19.5351 325.274 18.9551 325.407 18.2218L325.147 18.3818C324.974 18.4751 324.761 18.5218 324.507 18.5218C324.107 18.5218 323.754 18.3751 323.447 18.0818C323.154 17.7751 323.007 17.4218 323.007 17.0218C323.007 16.6218 323.154 16.2751 323.447 15.9818C323.754 15.6751 324.107 15.5218 324.507 15.5218C324.974 15.5218 325.354 15.6884 325.647 16.0218C325.954 16.3418 326.107 16.7751 326.107 17.3218C326.107 18.5484 325.707 19.5084 324.907 20.2018C324.561 20.5218 324.161 20.7618 323.707 20.9218L323.507 20.4218ZM333.215 17.4218C333.215 16.6351 333.369 15.9218 333.675 15.2818C333.995 14.6284 334.382 14.0618 334.835 13.5818C335.289 13.1018 335.882 12.5351 336.615 11.8818C337.295 11.2818 337.829 10.7818 338.215 10.3818C338.602 9.96844 338.929 9.50844 339.195 9.00178C339.462 8.48178 339.595 7.92178 339.595 7.32178C339.595 6.44178 339.382 5.75511 338.955 5.26178C338.529 4.76844 337.975 4.52178 337.295 4.52178C336.909 4.52178 336.515 4.57511 336.115 4.68178L335.695 4.82178V8.02178L335.435 8.08178C335.222 8.10844 335.042 8.12178 334.895 8.12178C334.442 8.12178 334.075 7.98844 333.795 7.72178C333.529 7.44178 333.395 7.07511 333.395 6.62178C333.395 6.19511 333.555 5.78178 333.875 5.38178C334.209 4.98178 334.695 4.65511 335.335 4.40178C335.989 4.14844 336.775 4.02178 337.695 4.02178C339.495 4.02178 340.829 4.38178 341.695 5.10178C342.562 5.82178 342.995 6.82844 342.995 8.12178C342.995 8.93511 342.782 9.63511 342.355 10.2218C341.942 10.8084 341.429 11.2951 340.815 11.6818C340.215 12.0684 339.409 12.5084 338.395 13.0018C337.542 13.4151 336.849 13.7818 336.315 14.1018C335.795 14.4084 335.309 14.7818 334.855 15.2218C334.415 15.6618 334.102 16.1618 333.915 16.7218H341.315C341.409 16.0018 341.635 15.4018 341.995 14.9218C342.142 14.6951 342.315 14.4951 342.515 14.3218H343.115V18.3218H333.215V17.4218ZM348.919 18.6218C347.999 18.6218 347.212 18.4951 346.559 18.2418C345.919 17.9884 345.432 17.6618 345.099 17.2618C344.779 16.8618 344.619 16.4484 344.619 16.0218C344.619 15.5684 344.752 15.2084 345.019 14.9418C345.299 14.6618 345.666 14.5218 346.119 14.5218C346.226 14.5218 346.332 14.5351 346.439 14.5618C346.546 14.5751 346.619 14.5818 346.659 14.5818L346.919 14.6218V17.8218C346.932 17.8218 347.072 17.8751 347.339 17.9818C347.686 18.0751 348.079 18.1218 348.519 18.1218C349.452 18.1218 350.166 17.8418 350.659 17.2818C351.166 16.7084 351.419 15.8551 351.419 14.7218C351.419 13.5618 351.172 12.6884 350.679 12.1018C350.199 11.5151 349.546 11.2218 348.719 11.2218H347.719V10.7218H348.719C349.319 10.7218 349.819 10.4551 350.219 9.92178C350.619 9.38844 350.819 8.62178 350.819 7.62178C350.819 6.62178 350.612 5.85511 350.199 5.32178C349.786 4.78844 349.259 4.52178 348.619 4.52178C348.272 4.52178 347.939 4.57511 347.619 4.68178C347.579 4.69511 347.446 4.74178 347.219 4.82178V8.02178L346.959 8.08178C346.746 8.10844 346.566 8.12178 346.419 8.12178C345.966 8.12178 345.599 7.98844 345.319 7.72178C345.052 7.44178 344.919 7.07511 344.919 6.62178C344.919 6.20844 345.079 5.80178 345.399 5.40178C345.719 5.00178 346.186 4.67511 346.799 4.42178C347.426 4.15511 348.166 4.02178 349.019 4.02178C350.139 4.02178 351.086 4.18844 351.859 4.52178C352.646 4.84178 353.232 5.27511 353.619 5.82178C354.019 6.36844 354.219 6.96844 354.219 7.62178C354.219 8.38178 354.026 8.98844 353.639 9.44178C353.252 9.88178 352.746 10.2351 352.119 10.5018C351.506 10.7418 350.806 10.8818 350.019 10.9218V11.0218C350.899 11.0618 351.699 11.2151 352.419 11.4818C354.019 12.1218 354.819 13.2018 354.819 14.7218C354.819 15.8951 354.332 16.8418 353.359 17.5618C352.399 18.2684 350.919 18.6218 348.919 18.6218ZM361.123 18.6218C360.336 18.6218 359.643 18.4951 359.043 18.2418C358.456 17.9751 358.003 17.6418 357.683 17.2418C357.376 16.8418 357.223 16.4351 357.223 16.0218C357.223 15.5684 357.356 15.2084 357.623 14.9418C357.903 14.6618 358.27 14.5218 358.723 14.5218C358.83 14.5218 358.936 14.5351 359.043 14.5618C359.15 14.5751 359.223 14.5818 359.263 14.5818L359.523 14.6218V17.8218L359.903 17.9818C360.143 18.0751 360.416 18.1218 360.723 18.1218C361.376 18.1218 361.91 17.9484 362.323 17.6018C362.736 17.2551 363.056 16.6151 363.283 15.6818C363.51 14.7484 363.623 13.4284 363.623 11.7218C363.503 11.9218 363.316 12.1218 363.063 12.3218C362.556 12.7218 361.976 12.9218 361.323 12.9218C360.35 12.9218 359.496 12.7418 358.763 12.3818C358.043 12.0084 357.49 11.4951 357.103 10.8418C356.716 10.1884 356.523 9.44844 356.523 8.62178C356.523 7.19511 356.963 6.07511 357.843 5.26178C358.736 4.43511 359.996 4.02178 361.623 4.02178C363.303 4.02178 364.623 4.62178 365.583 5.82178C366.543 7.02178 367.023 8.85511 367.023 11.3218C367.023 13.7218 366.496 15.5418 365.443 16.7818C364.403 18.0084 362.963 18.6218 361.123 18.6218ZM361.723 12.4218C362.27 12.4218 362.703 12.1551 363.023 11.6218C363.356 11.0884 363.523 10.2551 363.523 9.12178C363.523 7.42844 363.336 6.22178 362.963 5.50178C362.603 4.78178 362.156 4.42178 361.623 4.42178C361.356 4.42178 361.09 4.55511 360.823 4.82178C360.57 5.08844 360.356 5.52178 360.183 6.12178C360.01 6.72178 359.923 7.48844 359.923 8.42178C359.923 9.35511 360.01 10.1218 360.183 10.7218C360.37 11.3218 360.596 11.7551 360.863 12.0218C361.143 12.2884 361.43 12.4218 361.723 12.4218ZM379.531 18.6218C378.584 18.6218 377.698 18.4084 376.871 17.9818C376.498 17.7951 376.184 17.5751 375.931 17.3218C375.744 17.6284 375.511 17.9018 375.231 18.1418C374.991 18.3151 374.858 18.4084 374.831 18.4218H374.331V14.6218H375.131C375.331 15.2751 375.611 15.8618 375.971 16.3818C376.784 17.5418 377.838 18.1218 379.131 18.1218C379.891 18.1218 380.498 17.8951 380.951 17.4418C381.404 16.9884 381.631 16.3818 381.631 15.6218C381.631 15.1818 381.498 14.7884 381.231 14.4418C380.978 14.0951 380.658 13.7884 380.271 13.5218C379.884 13.2551 379.344 12.9218 378.651 12.5218C377.771 12.0284 377.058 11.5818 376.511 11.1818C375.964 10.7818 375.498 10.2818 375.111 9.68178C374.724 9.06844 374.531 8.34844 374.531 7.52178C374.531 6.86844 374.711 6.28178 375.071 5.76178C375.444 5.22844 375.998 4.80844 376.731 4.50178C377.464 4.18178 378.364 4.02178 379.431 4.02178C380.204 4.02178 380.978 4.24178 381.751 4.68178C382.044 4.84178 382.338 5.05511 382.631 5.32178C382.858 4.97511 383.091 4.70178 383.331 4.50178C383.571 4.32844 383.704 4.23511 383.731 4.22178H384.231V8.02178H383.431C383.258 7.38178 382.998 6.80178 382.651 6.28178C382.331 5.77511 381.931 5.35511 381.451 5.02178C380.984 4.68844 380.444 4.52178 379.831 4.52178C379.311 4.52178 378.864 4.72844 378.491 5.14178C378.118 5.55511 377.931 6.08178 377.931 6.72178C377.931 7.21511 378.071 7.66178 378.351 8.06178C378.644 8.44844 378.998 8.78844 379.411 9.08178C379.838 9.37511 380.411 9.72844 381.131 10.1418C381.971 10.6218 382.651 11.0484 383.171 11.4218C383.691 11.7951 384.131 12.2618 384.491 12.8218C384.851 13.3684 385.031 14.0018 385.031 14.7218C385.031 15.4418 384.824 16.1018 384.411 16.7018C383.998 17.2884 383.378 17.7551 382.551 18.1018C381.724 18.4484 380.718 18.6218 379.531 18.6218ZM386.525 18.3218V18.0218L387.725 17.7218V4.92178L386.525 4.62178V4.32178H392.225V4.62178L391.025 4.92178V11.1218H395.325V4.92178L394.125 4.62178V4.32178H399.825V4.62178L398.625 4.92178V17.7218L399.825 18.0218V18.3218H394.125V18.0218L395.325 17.7218V11.6218H391.025V17.7218L392.225 18.0218V18.3218H386.525ZM408.218 18.6218C406.912 18.6218 405.765 18.3418 404.778 17.7818C403.805 17.2084 403.052 16.3751 402.518 15.2818C401.985 14.1884 401.718 12.8684 401.718 11.3218C401.718 9.77511 401.985 8.45511 402.518 7.36178C403.052 6.26844 403.805 5.44178 404.778 4.88178C405.765 4.30844 406.912 4.02178 408.218 4.02178C409.525 4.02178 410.665 4.30844 411.638 4.88178C412.625 5.44178 413.385 6.26844 413.918 7.36178C414.452 8.45511 414.718 9.77511 414.718 11.3218C414.718 12.8684 414.452 14.1884 413.918 15.2818C413.385 16.3751 412.625 17.2084 411.638 17.7818C410.665 18.3418 409.525 18.6218 408.218 18.6218ZM408.218 18.2218C408.738 18.2218 409.218 18.0018 409.658 17.5618C410.112 17.1218 410.485 16.3884 410.778 15.3618C411.072 14.3351 411.218 12.9884 411.218 11.3218C411.218 9.65511 411.072 8.30844 410.778 7.28178C410.485 6.25511 410.112 5.52178 409.658 5.08178C409.218 4.64178 408.738 4.42178 408.218 4.42178C407.698 4.42178 407.212 4.64178 406.758 5.08178C406.318 5.52178 405.952 6.25511 405.658 7.28178C405.365 8.30844 405.218 9.65511 405.218 11.3218C405.218 12.9884 405.365 14.3351 405.658 15.3618C405.952 16.3884 406.318 17.1218 406.758 17.5618C407.212 18.0018 407.698 18.2218 408.218 18.2218ZM416.623 18.0218L417.823 17.7218V4.92178L416.623 4.62178V4.32178H422.223C424.436 4.32178 426.023 4.68844 426.983 5.42178C427.943 6.14178 428.423 7.20844 428.423 8.62178C428.423 10.0351 427.943 11.1084 426.983 11.8418C426.023 12.5618 424.436 12.9218 422.223 12.9218H421.123V17.7218L422.323 18.0218V18.3218H416.623V18.0218ZM422.223 12.4218C423.063 12.4218 423.736 12.1018 424.243 11.4618C424.763 10.8218 425.023 9.87511 425.023 8.62178C425.023 7.38178 424.763 6.44178 424.243 5.80178C423.736 5.14844 423.063 4.82178 422.223 4.82178H421.123V12.4218H422.223ZM430.119 18.0218L431.319 17.7218V4.92178L430.119 4.62178V4.32178H435.719C437.932 4.32178 439.519 4.68844 440.479 5.42178C441.439 6.14178 441.919 7.20844 441.919 8.62178C441.919 10.0351 441.439 11.1084 440.479 11.8418C439.519 12.5618 437.932 12.9218 435.719 12.9218H434.619V17.7218L435.819 18.0218V18.3218H430.119V18.0218ZM435.719 12.4218C436.559 12.4218 437.232 12.1018 437.739 11.4618C438.259 10.8218 438.519 9.87511 438.519 8.62178C438.519 7.38178 438.259 6.44178 437.739 5.80178C437.232 5.14844 436.559 4.82178 435.719 4.82178H434.619V12.4218H435.719ZM443.615 18.3218V18.0218L444.815 17.7218V4.92178L443.615 4.62178V4.32178H449.315V4.62178L448.115 4.92178V17.7218L449.315 18.0218V18.3218H443.615ZM452.915 7.72178V17.4218L454.515 18.0218V18.3218H450.715V18.0218L452.315 17.4218V5.02178L450.915 4.62178V4.32178H453.015C453.722 4.32178 454.275 4.44844 454.675 4.70178C455.075 4.95511 455.455 5.29511 455.815 5.72178L462.215 13.2218V5.22178L460.615 4.62178V4.32178H464.415V4.62178L462.815 5.22178V18.6218H462.215L452.915 7.72178ZM471.42 18.6218C470.407 18.6218 469.473 18.3351 468.62 17.7618C467.767 17.1884 467.087 16.3551 466.58 15.2618C466.073 14.1551 465.82 12.8418 465.82 11.3218C465.82 9.78844 466.08 8.47511 466.6 7.38178C467.133 6.27511 467.873 5.44178 468.82 4.88178C469.78 4.30844 470.887 4.02178 472.14 4.02178C472.9 4.02178 473.667 4.24178 474.44 4.68178C474.733 4.84178 475.027 5.05511 475.32 5.32178C475.547 4.97511 475.78 4.70178 476.02 4.50178C476.26 4.32844 476.393 4.23511 476.42 4.22178H476.92V8.02178H476.12C475.947 7.38178 475.687 6.80178 475.34 6.28178C475.02 5.77511 474.62 5.35511 474.14 5.02178C473.673 4.68844 473.133 4.52178 472.52 4.52178C471.6 4.52178 470.833 5.05511 470.22 6.12178C469.62 7.18844 469.32 8.92178 469.32 11.3218C469.32 13.7218 469.587 15.4218 470.12 16.4218C470.667 17.4218 471.367 17.9218 472.22 17.9218C472.713 17.9218 473.16 17.6551 473.56 17.1218C473.707 16.9218 473.86 16.6551 474.02 16.3218V11.7218L472.82 11.4218V11.1218H478.52V11.4218L477.32 11.7218V18.4218H477.02C476.047 18.4218 475.307 18.1551 474.8 17.6218C474.573 17.3818 474.413 17.1151 474.32 16.8218C474.133 17.1551 473.913 17.4551 473.66 17.7218C473.06 18.3218 472.313 18.6218 471.42 18.6218ZM492.229 18.6218C490.096 18.6218 488.429 17.9884 487.229 16.7218C486.029 15.4551 485.429 13.6551 485.429 11.3218C485.429 9.78844 485.689 8.47511 486.209 7.38178C486.743 6.27511 487.483 5.44178 488.429 4.88178C489.389 4.30844 490.496 4.02178 491.749 4.02178C492.509 4.02178 493.276 4.24178 494.049 4.68178C494.343 4.84178 494.636 5.05511 494.929 5.32178C495.156 4.97511 495.389 4.70178 495.629 4.50178C495.869 4.32844 496.003 4.23511 496.029 4.22178H496.529V8.02178H495.729C495.556 7.38178 495.296 6.80178 494.949 6.28178C494.629 5.77511 494.229 5.35511 493.749 5.02178C493.283 4.68844 492.743 4.52178 492.129 4.52178C491.209 4.52178 490.443 5.05511 489.829 6.12178C489.229 7.18844 488.929 8.92178 488.929 11.3218C488.929 13.7618 489.256 15.5084 489.909 16.5618C490.576 17.6018 491.483 18.1218 492.629 18.1218C493.256 18.1218 493.849 17.9484 494.409 17.6018C494.983 17.2418 495.443 16.7684 495.789 16.1818C496.149 15.5951 496.329 14.9751 496.329 14.3218H496.829C496.829 15.0818 496.623 15.7951 496.209 16.4618C495.809 17.1151 495.256 17.6418 494.549 18.0418C493.856 18.4284 493.083 18.6218 492.229 18.6218ZM498.537 18.0218L499.737 17.7218V4.92178L498.537 4.62178V4.32178H509.237V7.92178H508.637C508.384 7.72178 508.164 7.46844 507.977 7.16178C507.55 6.44178 507.337 5.66178 507.337 4.82178H503.037V11.1218H505.337C505.43 10.6151 505.604 10.1418 505.857 9.70178C505.964 9.50178 506.09 9.30844 506.237 9.12178H506.837V13.6218H506.237C506.09 13.4351 505.964 13.2418 505.857 13.0418C505.604 12.6018 505.43 12.1284 505.337 11.6218H503.037V17.8218H507.737C507.737 16.9818 507.95 16.2018 508.377 15.4818C508.564 15.1751 508.784 14.9218 509.037 14.7218H509.637V18.3218H498.537V18.0218ZM513.228 7.72178V17.4218L514.828 18.0218V18.3218H511.028V18.0218L512.628 17.4218V5.02178L511.228 4.62178V4.32178H513.328C514.034 4.32178 514.588 4.44844 514.988 4.70178C515.388 4.95511 515.768 5.29511 516.128 5.72178L522.528 13.2218V5.22178L520.928 4.62178V4.32178H524.728V4.62178L523.128 5.22178V18.6218H522.528L513.228 7.72178ZM528.732 18.0218L529.932 17.7218V4.82178H527.632C527.632 5.63511 527.412 6.41511 526.972 7.16178C526.786 7.46844 526.572 7.72178 526.332 7.92178H525.732V4.32178H537.432V7.92178H536.832C536.579 7.72178 536.359 7.46844 536.172 7.16178C535.746 6.44178 535.532 5.66178 535.532 4.82178H533.232V17.7218L534.432 18.0218V18.3218H528.732V18.0218ZM538.928 18.0218L540.128 17.7218V4.92178L538.928 4.62178V4.32178H549.628V7.92178H549.028C548.774 7.72178 548.554 7.46844 548.368 7.16178C547.941 6.44178 547.728 5.66178 547.728 4.82178H543.428V11.1218H545.728C545.821 10.6151 545.994 10.1418 546.248 9.70178C546.354 9.50178 546.481 9.30844 546.628 9.12178H547.228V13.6218H546.628C546.481 13.4351 546.354 13.2418 546.248 13.0418C545.994 12.6018 545.821 12.1284 545.728 11.6218H543.428V17.8218H548.128C548.128 16.9818 548.341 16.2018 548.768 15.4818C548.954 15.1751 549.174 14.9218 549.428 14.7218H550.028V18.3218H538.928V18.0218ZM551.818 18.0218L553.018 17.7218V4.92178L551.818 4.62178V4.32178H557.118C559.385 4.32178 561.018 4.66844 562.018 5.36178C563.018 6.04178 563.518 6.99511 563.518 8.22178C563.518 9.04844 563.298 9.72178 562.858 10.2418C562.418 10.7484 561.852 11.1284 561.158 11.3818C560.425 11.6618 559.645 11.8084 558.818 11.8218V11.9218C559.312 11.9484 559.745 12.0218 560.118 12.1418C561.052 12.4351 561.685 12.9618 562.018 13.7218L563.818 17.7218L564.818 18.0218V18.3218H562.018C560.925 18.3218 560.125 17.7551 559.618 16.6218L557.618 12.1218H556.318V17.7218L557.718 18.0218V18.3218H551.818V18.0218ZM557.118 11.6218C558.052 11.6218 558.785 11.3284 559.318 10.7418C559.852 10.1551 560.118 9.31511 560.118 8.22178C560.118 7.12844 559.852 6.28844 559.318 5.70178C558.785 5.11511 558.052 4.82178 557.118 4.82178H556.318V11.6218H557.118ZM132.238 46.0218L133.438 45.7218V32.9218L132.238 32.6218V32.3218H137.338C139.725 32.3218 141.552 32.9351 142.818 34.1618C144.098 35.3884 144.738 37.1084 144.738 39.3218C144.738 41.5351 144.098 43.2551 142.818 44.4818C141.552 45.7084 139.725 46.3218 137.338 46.3218H132.238V46.0218ZM137.338 45.8218C138.578 45.8218 139.538 45.3218 140.218 44.3218C140.898 43.3084 141.238 41.6418 141.238 39.3218C141.238 37.0018 140.898 35.3418 140.218 34.3418C139.538 33.3284 138.578 32.8218 137.338 32.8218H136.738V45.8218H137.338ZM146.535 46.0218L147.735 45.7218V32.9218L146.535 32.6218V32.3218H157.235V35.9218H156.635C156.382 35.7218 156.162 35.4684 155.975 35.1618C155.548 34.4418 155.335 33.6618 155.335 32.8218H151.035V39.1218H153.335C153.428 38.6151 153.602 38.1418 153.855 37.7018C153.962 37.5018 154.088 37.3084 154.235 37.1218H154.835V41.6218H154.235C154.088 41.4351 153.962 41.2418 153.855 41.0418C153.602 40.6018 153.428 40.1284 153.335 39.6218H151.035V45.8218H155.735C155.735 44.9818 155.948 44.2018 156.375 43.4818C156.562 43.1751 156.782 42.9218 157.035 42.7218H157.635V46.3218H146.535V46.0218ZM165.93 46.6218C163.797 46.6218 162.13 45.9884 160.93 44.7218C159.73 43.4551 159.13 41.6551 159.13 39.3218C159.13 37.7884 159.39 36.4751 159.91 35.3818C160.444 34.2751 161.184 33.4418 162.13 32.8818C163.09 32.3084 164.197 32.0218 165.45 32.0218C166.21 32.0218 166.977 32.2418 167.75 32.6818C168.044 32.8418 168.337 33.0551 168.63 33.3218C168.857 32.9751 169.09 32.7018 169.33 32.5018C169.57 32.3284 169.704 32.2351 169.73 32.2218H170.23V36.0218H169.43C169.257 35.3818 168.997 34.8018 168.65 34.2818C168.33 33.7751 167.93 33.3551 167.45 33.0218C166.984 32.6884 166.444 32.5218 165.83 32.5218C164.91 32.5218 164.144 33.0551 163.53 34.1218C162.93 35.1884 162.63 36.9218 162.63 39.3218C162.63 41.7618 162.957 43.5084 163.61 44.5618C164.277 45.6018 165.184 46.1218 166.33 46.1218C166.957 46.1218 167.55 45.9484 168.11 45.6018C168.684 45.2418 169.144 44.7684 169.49 44.1818C169.85 43.5951 170.03 42.9751 170.03 42.3218H170.53C170.53 43.0818 170.324 43.7951 169.91 44.4618C169.51 45.1151 168.957 45.6418 168.25 46.0418C167.557 46.4284 166.784 46.6218 165.93 46.6218ZM178.248 46.6218C176.941 46.6218 175.794 46.3418 174.808 45.7818C173.834 45.2084 173.081 44.3751 172.548 43.2818C172.014 42.1884 171.748 40.8684 171.748 39.3218C171.748 37.7751 172.014 36.4551 172.548 35.3618C173.081 34.2684 173.834 33.4418 174.808 32.8818C175.794 32.3084 176.941 32.0218 178.248 32.0218C179.554 32.0218 180.694 32.3084 181.668 32.8818C182.654 33.4418 183.414 34.2684 183.948 35.3618C184.481 36.4551 184.748 37.7751 184.748 39.3218C184.748 40.8684 184.481 42.1884 183.948 43.2818C183.414 44.3751 182.654 45.2084 181.668 45.7818C180.694 46.3418 179.554 46.6218 178.248 46.6218ZM178.248 46.2218C178.768 46.2218 179.248 46.0018 179.688 45.5618C180.141 45.1218 180.514 44.3884 180.808 43.3618C181.101 42.3351 181.248 40.9884 181.248 39.3218C181.248 37.6551 181.101 36.3084 180.808 35.2818C180.514 34.2551 180.141 33.5218 179.688 33.0818C179.248 32.6418 178.768 32.4218 178.248 32.4218C177.728 32.4218 177.241 32.6418 176.788 33.0818C176.348 33.5218 175.981 34.2551 175.688 35.2818C175.394 36.3084 175.248 37.6551 175.248 39.3218C175.248 40.9884 175.394 42.3351 175.688 43.3618C175.981 44.3884 176.348 45.1218 176.788 45.5618C177.241 46.0018 177.728 46.2218 178.248 46.2218ZM186.652 46.0218L187.852 45.7218V32.9218L186.652 32.6218V32.3218H191.952C194.219 32.3218 195.852 32.6684 196.852 33.3618C197.852 34.0418 198.352 34.9951 198.352 36.2218C198.352 37.0484 198.132 37.7218 197.692 38.2418C197.252 38.7484 196.686 39.1284 195.992 39.3818C195.259 39.6618 194.479 39.8084 193.652 39.8218V39.9218C194.146 39.9484 194.579 40.0218 194.952 40.1418C195.886 40.4351 196.519 40.9618 196.852 41.7218L198.652 45.7218L199.652 46.0218V46.3218H196.852C195.759 46.3218 194.959 45.7551 194.452 44.6218L192.452 40.1218H191.152V45.7218L192.552 46.0218V46.3218H186.652V46.0218ZM191.952 39.6218C192.886 39.6218 193.619 39.3284 194.152 38.7418C194.686 38.1551 194.952 37.3151 194.952 36.2218C194.952 35.1284 194.686 34.2884 194.152 33.7018C193.619 33.1151 192.886 32.8218 191.952 32.8218H191.152V39.6218H191.952ZM207.361 46.6218C205.388 46.6218 203.894 46.1618 202.881 45.2418C201.868 44.3084 201.361 43.0018 201.361 41.3218V32.9218L200.161 32.6218V32.3218H205.861V32.6218L204.661 32.9218V41.3218C204.661 43.0418 204.928 44.2751 205.461 45.0218C205.994 45.7551 206.761 46.1218 207.761 46.1218C208.374 46.1218 208.954 45.9284 209.501 45.5418C210.061 45.1418 210.508 44.5818 210.841 43.8618C211.188 43.1284 211.361 42.2818 211.361 41.3218V33.2218L209.761 32.6218V32.3218H213.561V32.6218L211.961 33.2218V41.3218C211.961 42.4018 211.761 43.3418 211.361 44.1418C210.961 44.9418 210.414 45.5551 209.721 45.9818C209.028 46.4084 208.241 46.6218 207.361 46.6218ZM216.46 34.8218V45.4218L218.06 46.0218V46.3218H214.26V46.0218L215.86 45.4218V32.9218L214.66 32.6218V32.3218H217.16C217.853 32.3218 218.4 32.4684 218.8 32.7618C219.213 33.0418 219.567 33.4618 219.86 34.0218L224.22 42.3618L227.56 34.0218C227.787 33.4351 228.093 33.0084 228.48 32.7418C228.867 32.4618 229.46 32.3218 230.26 32.3218H232.36V32.6218L231.16 32.9218V45.7218L232.36 46.0218V46.3218H226.66V46.0218L227.86 45.7218V34.8218L223.16 46.5218H222.56L216.46 34.8218ZM242.473 46.0218L243.673 45.7218V32.8218H241.373C241.373 33.6351 241.153 34.4151 240.713 35.1618C240.526 35.4684 240.313 35.7218 240.073 35.9218H239.473V32.3218H251.173V35.9218H250.573C250.319 35.7218 250.099 35.4684 249.913 35.1618C249.486 34.4418 249.273 33.6618 249.273 32.8218H246.973V45.7218L248.173 46.0218V46.3218H242.473V46.0218ZM252.668 46.0218L253.868 45.7218V32.9218L252.668 32.6218V32.3218H263.368V35.9218H262.768C262.515 35.7218 262.295 35.4684 262.108 35.1618C261.681 34.4418 261.468 33.6618 261.468 32.8218H257.168V39.1218H259.468C259.561 38.6151 259.735 38.1418 259.988 37.7018C260.095 37.5018 260.221 37.3084 260.368 37.1218H260.968V41.6218H260.368C260.221 41.4351 260.095 41.2418 259.988 41.0418C259.735 40.6018 259.561 40.1284 259.468 39.6218H257.168V45.8218H261.868C261.868 44.9818 262.081 44.2018 262.508 43.4818C262.695 43.1751 262.915 42.9218 263.168 42.7218H263.768V46.3218H252.668V46.0218ZM265.559 46.0218L266.759 45.7218V32.9218L265.559 32.6218V32.3218H271.259V32.6218L270.059 32.9218V45.8218H274.359C274.359 44.9818 274.572 44.2018 274.999 43.4818C275.185 43.1751 275.405 42.9218 275.659 42.7218H276.259V46.3218H265.559V46.0218ZM287.071 44.4218V40.1218H283.071V39.2218H287.071V34.9218H287.971V39.2218H291.971V40.1218H287.971V44.4218H287.071ZM295.564 46.3218C295.564 45.0018 295.744 43.8351 296.104 42.8218C296.477 41.7951 296.924 40.9218 297.444 40.2018C297.964 39.4684 298.644 38.6418 299.484 37.7218C300.217 36.9218 300.791 36.2418 301.204 35.6818C301.631 35.1084 301.951 34.4884 302.164 33.8218H295.064C294.971 34.5418 294.744 35.1418 294.384 35.6218C294.237 35.8484 294.064 36.0484 293.864 36.2218H293.264V32.3218H302.764V33.2218C302.764 33.9684 302.644 34.6618 302.404 35.3018C302.177 35.9418 301.817 36.7684 301.324 37.7818C300.844 38.7284 300.451 39.5684 300.144 40.3018C299.851 41.0351 299.597 41.9151 299.384 42.9418C299.171 43.9551 299.064 45.0818 299.064 46.3218H295.564ZM315.475 51.1218C313.835 50.0418 312.488 48.6351 311.435 46.9018C310.395 45.1818 309.875 43.2218 309.875 41.0218C309.875 38.8218 310.388 36.8751 311.415 35.1818C312.455 33.4751 313.808 32.0551 315.475 30.9218L315.675 31.2218C314.888 32.2484 314.288 33.6151 313.875 35.3218C313.475 37.0284 313.275 38.9284 313.275 41.0218C313.275 43.1151 313.475 45.0151 313.875 46.7218C314.288 48.4284 314.888 49.7951 315.675 50.8218L315.475 51.1218ZM321.484 46.6218C320.698 46.6218 320.004 46.4951 319.404 46.2418C318.818 45.9751 318.364 45.6418 318.044 45.2418C317.738 44.8418 317.584 44.4351 317.584 44.0218C317.584 43.5684 317.718 43.2084 317.984 42.9418C318.264 42.6618 318.631 42.5218 319.084 42.5218C319.191 42.5218 319.298 42.5351 319.404 42.5618C319.511 42.5751 319.584 42.5818 319.624 42.5818L319.884 42.6218V45.8218L320.264 45.9818C320.504 46.0751 320.778 46.1218 321.084 46.1218C321.738 46.1218 322.271 45.9484 322.684 45.6018C323.098 45.2551 323.418 44.6151 323.644 43.6818C323.871 42.7484 323.984 41.4284 323.984 39.7218C323.864 39.9218 323.678 40.1218 323.424 40.3218C322.918 40.7218 322.338 40.9218 321.684 40.9218C320.711 40.9218 319.858 40.7418 319.124 40.3818C318.404 40.0084 317.851 39.4951 317.464 38.8418C317.078 38.1884 316.884 37.4484 316.884 36.6218C316.884 35.1951 317.324 34.0751 318.204 33.2618C319.098 32.4351 320.358 32.0218 321.984 32.0218C323.664 32.0218 324.984 32.6218 325.944 33.8218C326.904 35.0218 327.384 36.8551 327.384 39.3218C327.384 41.7218 326.858 43.5418 325.804 44.7818C324.764 46.0084 323.324 46.6218 321.484 46.6218ZM322.084 40.4218C322.631 40.4218 323.064 40.1551 323.384 39.6218C323.718 39.0884 323.884 38.2551 323.884 37.1218C323.884 35.4284 323.698 34.2218 323.324 33.5018C322.964 32.7818 322.518 32.4218 321.984 32.4218C321.718 32.4218 321.451 32.5551 321.184 32.8218C320.931 33.0884 320.718 33.5218 320.544 34.1218C320.371 34.7218 320.284 35.4884 320.284 36.4218C320.284 37.3551 320.371 38.1218 320.544 38.7218C320.731 39.3218 320.958 39.7551 321.224 40.0218C321.504 40.2884 321.791 40.4218 322.084 40.4218ZM328.596 45.4218C328.596 44.6351 328.749 43.9218 329.056 43.2818C329.376 42.6284 329.763 42.0618 330.216 41.5818C330.669 41.1018 331.263 40.5351 331.996 39.8818C332.676 39.2818 333.209 38.7818 333.596 38.3818C333.983 37.9684 334.309 37.5084 334.576 37.0018C334.843 36.4818 334.976 35.9218 334.976 35.3218C334.976 34.4418 334.763 33.7551 334.336 33.2618C333.909 32.7684 333.356 32.5218 332.676 32.5218C332.289 32.5218 331.896 32.5751 331.496 32.6818L331.076 32.8218V36.0218L330.816 36.0818C330.603 36.1084 330.423 36.1218 330.276 36.1218C329.823 36.1218 329.456 35.9884 329.176 35.7218C328.909 35.4418 328.776 35.0751 328.776 34.6218C328.776 34.1951 328.936 33.7818 329.256 33.3818C329.589 32.9818 330.076 32.6551 330.716 32.4018C331.369 32.1484 332.156 32.0218 333.076 32.0218C334.876 32.0218 336.209 32.3818 337.076 33.1018C337.943 33.8218 338.376 34.8284 338.376 36.1218C338.376 36.9351 338.163 37.6351 337.736 38.2218C337.323 38.8084 336.809 39.2951 336.196 39.6818C335.596 40.0684 334.789 40.5084 333.776 41.0018C332.923 41.4151 332.229 41.7818 331.696 42.1018C331.176 42.4084 330.689 42.7818 330.236 43.2218C329.796 43.6618 329.483 44.1618 329.296 44.7218H336.696C336.789 44.0018 337.016 43.4018 337.376 42.9218C337.523 42.6951 337.696 42.4951 337.896 42.3218H338.496V46.3218H328.596V45.4218ZM345.4 46.6218C343.72 46.6218 342.447 46.2884 341.58 45.6218C340.727 44.9551 340.3 44.0884 340.3 43.0218C340.3 42.2884 340.62 41.5818 341.26 40.9018C341.9 40.2084 342.68 39.7151 343.6 39.4218C342.72 38.9284 342.047 38.3884 341.58 37.8018C341.127 37.2018 340.9 36.4751 340.9 35.6218C340.9 34.5551 341.327 33.6884 342.18 33.0218C343.047 32.3551 344.32 32.0218 346 32.0218C346.84 32.0218 347.573 32.1751 348.2 32.4818C348.84 32.7884 349.333 33.1884 349.68 33.6818C350.027 34.1751 350.2 34.6884 350.2 35.2218C350.2 35.8484 349.927 36.4551 349.38 37.0418C348.847 37.6284 348.22 38.0218 347.5 38.2218C348.713 38.7551 349.633 39.3884 350.26 40.1218C350.887 40.8551 351.2 41.7551 351.2 42.8218C351.2 43.5151 350.987 44.1484 350.56 44.7218C350.133 45.2951 349.487 45.7551 348.62 46.1018C347.753 46.4484 346.68 46.6218 345.4 46.6218ZM346.9 37.8218C347.407 37.5951 347.813 37.2684 348.12 36.8418C348.44 36.4151 348.6 35.8751 348.6 35.2218C348.6 34.7418 348.48 34.2951 348.24 33.8818C348.013 33.4684 347.713 33.1418 347.34 32.9018C346.98 32.6484 346.6 32.5218 346.2 32.5218C345.627 32.5218 345.147 32.7484 344.76 33.2018C344.387 33.6418 344.2 34.2484 344.2 35.0218C344.2 36.0884 345.1 37.0218 346.9 37.8218ZM345.2 46.1218C346.053 46.1218 346.713 45.8884 347.18 45.4218C347.66 44.9418 347.9 44.2751 347.9 43.4218C347.9 42.7818 347.58 42.1351 346.94 41.4818C346.3 40.8284 345.453 40.2751 344.4 39.8218C343.653 40.0884 343.067 40.4884 342.64 41.0218C342.213 41.5418 342 42.2084 342 43.0218C342 43.5818 342.14 44.1018 342.42 44.5818C342.713 45.0484 343.1 45.4218 343.58 45.7018C344.073 45.9818 344.613 46.1218 345.2 46.1218ZM352.105 50.8218C352.891 49.7951 353.485 48.4284 353.885 46.7218C354.298 45.0151 354.505 43.1151 354.505 41.0218C354.505 38.9284 354.298 37.0284 353.885 35.3218C353.485 33.6151 352.891 32.2484 352.105 31.2218L352.305 30.9218C353.971 32.0551 355.318 33.4751 356.345 35.1818C357.385 36.8751 357.905 38.8218 357.905 41.0218C357.905 43.2218 357.378 45.1818 356.325 46.9018C355.285 48.6351 353.945 50.0418 352.305 51.1218L352.105 50.8218ZM367.42 46.3218C367.42 45.0018 367.6 43.8351 367.96 42.8218C368.333 41.7951 368.78 40.9218 369.3 40.2018C369.82 39.4684 370.5 38.6418 371.34 37.7218C372.073 36.9218 372.646 36.2418 373.06 35.6818C373.486 35.1084 373.806 34.4884 374.02 33.8218H366.92C366.826 34.5418 366.6 35.1418 366.24 35.6218C366.093 35.8484 365.92 36.0484 365.72 36.2218H365.12V32.3218H374.62V33.2218C374.62 33.9684 374.5 34.6618 374.26 35.3018C374.033 35.9418 373.673 36.7684 373.18 37.7818C372.7 38.7284 372.306 39.5684 372 40.3018C371.706 41.0351 371.453 41.9151 371.24 42.9418C371.026 43.9551 370.92 45.0818 370.92 46.3218H367.42ZM381.134 46.6218C379.454 46.6218 378.134 46.0218 377.174 44.8218C376.214 43.6218 375.734 41.7884 375.734 39.3218C375.734 36.9218 376.254 35.1084 377.294 33.8818C378.348 32.6418 379.794 32.0218 381.634 32.0218C382.421 32.0218 383.108 32.1551 383.694 32.4218C384.294 32.6751 384.748 33.0018 385.054 33.4018C385.374 33.8018 385.534 34.2084 385.534 34.6218C385.534 35.0751 385.394 35.4418 385.114 35.7218C384.848 35.9884 384.488 36.1218 384.034 36.1218C383.848 36.1218 383.661 36.1084 383.474 36.0818L383.234 36.0218V32.8218L382.854 32.6818C382.561 32.5751 382.288 32.5218 382.034 32.5218C381.381 32.5218 380.841 32.6951 380.414 33.0418C380.001 33.3884 379.681 34.0284 379.454 34.9618C379.241 35.8951 379.134 37.2151 379.134 38.9218C379.281 38.6951 379.461 38.4951 379.674 38.3218C380.181 37.9218 380.768 37.7218 381.434 37.7218C382.408 37.7218 383.254 37.9084 383.974 38.2818C384.708 38.6418 385.268 39.1484 385.654 39.8018C386.041 40.4551 386.234 41.1951 386.234 42.0218C386.234 43.4484 385.788 44.5751 384.894 45.4018C384.014 46.2151 382.761 46.6218 381.134 46.6218ZM381.134 46.2218C381.401 46.2218 381.661 46.0884 381.914 45.8218C382.181 45.5551 382.401 45.1218 382.574 44.5218C382.748 43.9218 382.834 43.1551 382.834 42.2218C382.834 41.2884 382.741 40.5218 382.554 39.9218C382.381 39.3218 382.154 38.8884 381.874 38.6218C381.608 38.3551 381.328 38.2218 381.034 38.2218C380.488 38.2218 380.048 38.4884 379.714 39.0218C379.394 39.5551 379.234 40.3884 379.234 41.5218C379.234 43.2151 379.414 44.4218 379.774 45.1418C380.148 45.8618 380.601 46.2218 381.134 46.2218ZM393.037 46.6218C391.357 46.6218 390.083 46.2884 389.217 45.6218C388.363 44.9551 387.937 44.0884 387.937 43.0218C387.937 42.2884 388.257 41.5818 388.897 40.9018C389.537 40.2084 390.317 39.7151 391.237 39.4218C390.357 38.9284 389.683 38.3884 389.217 37.8018C388.763 37.2018 388.537 36.4751 388.537 35.6218C388.537 34.5551 388.963 33.6884 389.817 33.0218C390.683 32.3551 391.957 32.0218 393.637 32.0218C394.477 32.0218 395.21 32.1751 395.837 32.4818C396.477 32.7884 396.97 33.1884 397.317 33.6818C397.663 34.1751 397.837 34.6884 397.837 35.2218C397.837 35.8484 397.563 36.4551 397.017 37.0418C396.483 37.6284 395.857 38.0218 395.137 38.2218C396.35 38.7551 397.27 39.3884 397.897 40.1218C398.523 40.8551 398.837 41.7551 398.837 42.8218C398.837 43.5151 398.623 44.1484 398.197 44.7218C397.77 45.2951 397.123 45.7551 396.257 46.1018C395.39 46.4484 394.317 46.6218 393.037 46.6218ZM394.537 37.8218C395.043 37.5951 395.45 37.2684 395.757 36.8418C396.077 36.4151 396.237 35.8751 396.237 35.2218C396.237 34.7418 396.117 34.2951 395.877 33.8818C395.65 33.4684 395.35 33.1418 394.977 32.9018C394.617 32.6484 394.237 32.5218 393.837 32.5218C393.263 32.5218 392.783 32.7484 392.397 33.2018C392.023 33.6418 391.837 34.2484 391.837 35.0218C391.837 36.0884 392.737 37.0218 394.537 37.8218ZM392.837 46.1218C393.69 46.1218 394.35 45.8884 394.817 45.4218C395.297 44.9418 395.537 44.2751 395.537 43.4218C395.537 42.7818 395.217 42.1351 394.577 41.4818C393.937 40.8284 393.09 40.2751 392.037 39.8218C391.29 40.0884 390.703 40.4884 390.277 41.0218C389.85 41.5418 389.637 42.2084 389.637 43.0218C389.637 43.5818 389.777 44.1018 390.057 44.5818C390.35 45.0484 390.737 45.4218 391.217 45.7018C391.71 45.9818 392.25 46.1218 392.837 46.1218ZM409.847 46.6218C408.927 46.6218 408.14 46.4951 407.487 46.2418C406.847 45.9884 406.36 45.6618 406.027 45.2618C405.707 44.8618 405.547 44.4484 405.547 44.0218C405.547 43.5684 405.68 43.2084 405.947 42.9418C406.227 42.6618 406.594 42.5218 407.047 42.5218C407.154 42.5218 407.26 42.5351 407.367 42.5618C407.474 42.5751 407.547 42.5818 407.587 42.5818L407.847 42.6218V45.8218C407.86 45.8218 408 45.8751 408.267 45.9818C408.614 46.0751 409.007 46.1218 409.447 46.1218C410.38 46.1218 411.094 45.8418 411.587 45.2818C412.094 44.7084 412.347 43.8551 412.347 42.7218C412.347 41.5618 412.1 40.6884 411.607 40.1018C411.127 39.5151 410.474 39.2218 409.647 39.2218H408.647V38.7218H409.647C410.247 38.7218 410.747 38.4551 411.147 37.9218C411.547 37.3884 411.747 36.6218 411.747 35.6218C411.747 34.6218 411.54 33.8551 411.127 33.3218C410.714 32.7884 410.187 32.5218 409.547 32.5218C409.2 32.5218 408.867 32.5751 408.547 32.6818C408.507 32.6951 408.374 32.7418 408.147 32.8218V36.0218L407.887 36.0818C407.674 36.1084 407.494 36.1218 407.347 36.1218C406.894 36.1218 406.527 35.9884 406.247 35.7218C405.98 35.4418 405.847 35.0751 405.847 34.6218C405.847 34.2084 406.007 33.8018 406.327 33.4018C406.647 33.0018 407.114 32.6751 407.727 32.4218C408.354 32.1551 409.094 32.0218 409.947 32.0218C411.067 32.0218 412.014 32.1884 412.787 32.5218C413.574 32.8418 414.16 33.2751 414.547 33.8218C414.947 34.3684 415.147 34.9684 415.147 35.6218C415.147 36.3818 414.954 36.9884 414.567 37.4418C414.18 37.8818 413.674 38.2351 413.047 38.5018C412.434 38.7418 411.734 38.8818 410.947 38.9218V39.0218C411.827 39.0618 412.627 39.2151 413.347 39.4818C414.947 40.1218 415.747 41.2018 415.747 42.7218C415.747 43.8951 415.26 44.8418 414.287 45.5618C413.327 46.2684 411.847 46.6218 409.847 46.6218ZM417.346 45.4218C417.346 44.6351 417.499 43.9218 417.806 43.2818C418.126 42.6284 418.513 42.0618 418.966 41.5818C419.419 41.1018 420.013 40.5351 420.746 39.8818C421.426 39.2818 421.959 38.7818 422.346 38.3818C422.733 37.9684 423.059 37.5084 423.326 37.0018C423.593 36.4818 423.726 35.9218 423.726 35.3218C423.726 34.4418 423.513 33.7551 423.086 33.2618C422.659 32.7684 422.106 32.5218 421.426 32.5218C421.039 32.5218 420.646 32.5751 420.246 32.6818L419.826 32.8218V36.0218L419.566 36.0818C419.353 36.1084 419.173 36.1218 419.026 36.1218C418.573 36.1218 418.206 35.9884 417.926 35.7218C417.659 35.4418 417.526 35.0751 417.526 34.6218C417.526 34.1951 417.686 33.7818 418.006 33.3818C418.339 32.9818 418.826 32.6551 419.466 32.4018C420.119 32.1484 420.906 32.0218 421.826 32.0218C423.626 32.0218 424.959 32.3818 425.826 33.1018C426.693 33.8218 427.126 34.8284 427.126 36.1218C427.126 36.9351 426.913 37.6351 426.486 38.2218C426.073 38.8084 425.559 39.2951 424.946 39.6818C424.346 40.0684 423.539 40.5084 422.526 41.0018C421.673 41.4151 420.979 41.7818 420.446 42.1018C419.926 42.4084 419.439 42.7818 418.986 43.2218C418.546 43.6618 418.233 44.1618 418.046 44.7218H425.446C425.539 44.0018 425.766 43.4018 426.126 42.9218C426.273 42.6951 426.446 42.4951 426.646 42.3218H427.246V46.3218H417.346V45.4218ZM434.455 45.4218C434.455 44.6351 434.609 43.9218 434.915 43.2818C435.235 42.6284 435.622 42.0618 436.075 41.5818C436.529 41.1018 437.122 40.5351 437.855 39.8818C438.535 39.2818 439.069 38.7818 439.455 38.3818C439.842 37.9684 440.169 37.5084 440.435 37.0018C440.702 36.4818 440.835 35.9218 440.835 35.3218C440.835 34.4418 440.622 33.7551 440.195 33.2618C439.769 32.7684 439.215 32.5218 438.535 32.5218C438.149 32.5218 437.755 32.5751 437.355 32.6818L436.935 32.8218V36.0218L436.675 36.0818C436.462 36.1084 436.282 36.1218 436.135 36.1218C435.682 36.1218 435.315 35.9884 435.035 35.7218C434.769 35.4418 434.635 35.0751 434.635 34.6218C434.635 34.1951 434.795 33.7818 435.115 33.3818C435.449 32.9818 435.935 32.6551 436.575 32.4018C437.229 32.1484 438.015 32.0218 438.935 32.0218C440.735 32.0218 442.069 32.3818 442.935 33.1018C443.802 33.8218 444.235 34.8284 444.235 36.1218C444.235 36.9351 444.022 37.6351 443.595 38.2218C443.182 38.8084 442.669 39.2951 442.055 39.6818C441.455 40.0684 440.649 40.5084 439.635 41.0018C438.782 41.4151 438.089 41.7818 437.555 42.1018C437.035 42.4084 436.549 42.7818 436.095 43.2218C435.655 43.6618 435.342 44.1618 435.155 44.7218H442.555C442.649 44.0018 442.875 43.4018 443.235 42.9218C443.382 42.6951 443.555 42.4951 443.755 42.3218H444.355V46.3218H434.455V45.4218ZM450.859 46.6218C450.073 46.6218 449.379 46.4951 448.779 46.2418C448.193 45.9751 447.739 45.6418 447.419 45.2418C447.113 44.8418 446.959 44.4351 446.959 44.0218C446.959 43.5684 447.093 43.2084 447.359 42.9418C447.639 42.6618 448.006 42.5218 448.459 42.5218C448.566 42.5218 448.673 42.5351 448.779 42.5618C448.886 42.5751 448.959 42.5818 448.999 42.5818L449.259 42.6218V45.8218L449.639 45.9818C449.879 46.0751 450.153 46.1218 450.459 46.1218C451.113 46.1218 451.646 45.9484 452.059 45.6018C452.473 45.2551 452.793 44.6151 453.019 43.6818C453.246 42.7484 453.359 41.4284 453.359 39.7218C453.239 39.9218 453.053 40.1218 452.799 40.3218C452.293 40.7218 451.713 40.9218 451.059 40.9218C450.086 40.9218 449.233 40.7418 448.499 40.3818C447.779 40.0084 447.226 39.4951 446.839 38.8418C446.453 38.1884 446.259 37.4484 446.259 36.6218C446.259 35.1951 446.699 34.0751 447.579 33.2618C448.473 32.4351 449.733 32.0218 451.359 32.0218C453.039 32.0218 454.359 32.6218 455.319 33.8218C456.279 35.0218 456.759 36.8551 456.759 39.3218C456.759 41.7218 456.233 43.5418 455.179 44.7818C454.139 46.0084 452.699 46.6218 450.859 46.6218ZM451.459 40.4218C452.006 40.4218 452.439 40.1551 452.759 39.6218C453.093 39.0884 453.259 38.2551 453.259 37.1218C453.259 35.4284 453.073 34.2218 452.699 33.5018C452.339 32.7818 451.893 32.4218 451.359 32.4218C451.093 32.4218 450.826 32.5551 450.559 32.8218C450.306 33.0884 450.093 33.5218 449.919 34.1218C449.746 34.7218 449.659 35.4884 449.659 36.4218C449.659 37.3551 449.746 38.1218 449.919 38.7218C450.106 39.3218 450.333 39.7551 450.599 40.0218C450.879 40.2884 451.166 40.4218 451.459 40.4218Z" fill="#E3B873"/>
<circle cx="271" cy="91.3218" r="14" fill="#E3B873"/>
<path d="M265.4 86.1216H276.6C277.37 86.1216 278 86.7516 278 87.5216V95.9216C278 96.6916 277.37 97.3216 276.6 97.3216H265.4C264.63 97.3216 264 96.6916 264 95.9216V87.5216C264 86.7516 264.63 86.1216 265.4 86.1216Z" stroke="white" stroke-width="1.5" stroke-linecap="round" stroke-linejoin="round"/>
<path d="M278 87.522L271 92.422L264 87.522" stroke="white" stroke-width="1.5" stroke-linecap="round" stroke-linejoin="round"/>
<circle cx="314" cy="91.3218" r="14" fill="#E3B873"/>
<path d="M317 85.7212H311C309.343 85.7212 308 87.0643 308 88.7212V94.7212C308 96.378 309.343 97.7212 311 97.7212H317C318.657 97.7212 320 96.378 320 94.7212V88.7212C320 87.0643 318.657 85.7212 317 85.7212Z" stroke="white" stroke-width="1.5"/>
<path d="M316.4 91.3434C316.474 91.8427 316.389 92.3527 316.156 92.8008C315.924 93.2489 315.556 93.6122 315.105 93.8392C314.654 94.0661 314.143 94.1451 313.645 94.0649C313.146 93.9847 312.686 93.7494 312.329 93.3925C311.972 93.0355 311.737 92.5751 311.656 92.0767C311.576 91.5783 311.655 91.0673 311.882 90.6164C312.109 90.1655 312.473 89.7976 312.921 89.5651C313.369 89.3326 313.879 89.2473 314.378 89.3214C314.887 89.3969 315.359 89.6343 315.723 89.9984C316.087 90.3625 316.325 90.834 316.4 91.3434Z" stroke="white" stroke-width="1.5" stroke-linecap="round" stroke-linejoin="round"/>
</svg>
